<svg width="149" height="174" viewBox="0 0 149 174" fill="none" xmlns="http://www.w3.org/2000/svg">
<path d="M30.5973 21.4705C26.0089 13.9608 31.1931 9.15948 38.1808 5.58929C48.0666 0.541784 72.5261 3.00398 80.9 8.05149C88.5858 12.7297 91.9959 19.5008 88.3371 25.5332" fill="white"/>
<path d="M30.5973 21.4705C26.0089 13.9608 31.1931 9.15948 38.1808 5.58929C48.0666 0.541784 72.5261 3.00398 80.9 8.05149C88.5858 12.7297 91.9959 19.5008 88.3371 25.5332" stroke="black" stroke-width="4.99999" stroke-linecap="round" stroke-linejoin="round"/>
<path d="M144.7 71.9456C151.603 58.8959 123.946 53.2328 116.013 52.248C106.481 51.0169 92.3761 24.9176 75.8436 19.9932C64.6382 16.6692 39.7404 15.315 30.9159 21.8399C15.8004 32.9198 8.1676 47.3236 4.70821 65.0514C3.48942 71.33 2.61534 78.4704 3.53866 84.3797C7.45356 109.026 21.9387 109.014 27.5562 109.888C30.9134 120.623 43.1899 128.404 59.6485 125.141C59.7753 138.363 59.3703 146.513 58.2795 159.034C56.4526 179.987 92.8377 173.868 92.0991 140.247C91.7273 123.369 84.4035 94.9671 94.0824 72.6842C113.338 88.9347 132.187 95.7058 144.7 71.9456Z" fill="white" stroke="black" stroke-width="4.99999" stroke-linecap="round" stroke-linejoin="round"/>
<path d="M62.1541 125.942C62.1171 113.311 60.6595 103.499 53.2581 93.8593C56.3482 101.861 57.4069 118.013 57.1693 128.195L62.1541 125.942Z" fill="black"/>
<path d="M25.6729 112.166L30.3621 110.331C27.9873 103.474 25.3749 95.7058 21.6041 91.6432C22.9349 94.844 24.1611 106.392 25.6729 112.166Z" fill="black"/>
<path d="M38.0885 29.965C32.0081 41.4143 31.757 44.7383 29.685 50.6476" stroke="black" stroke-width="4.99999" stroke-linecap="round" stroke-linejoin="round"/>
<path d="M49.667 30.2113C46.2495 44.1227 45.9146 51.017 44.4791 60.4965" stroke="black" stroke-width="4.99999" stroke-linecap="round" stroke-linejoin="round"/>
<path d="M63.4775 30.8268C62.4249 40.6756 62.8361 45.3538 62.7942 51.6324" stroke="black" stroke-width="4.99999" stroke-linecap="round" stroke-linejoin="round"/>
</svg>
